<mxfile host="app.diagrams.net" modified="2023-04-09T16:27:53.837Z" agent="Mozilla/5.0 (Windows NT 10.0; Win64; x64) AppleWebKit/537.36 (KHTML, like Gecko) Chrome/112.0.0.0 Safari/537.36" etag="UXpBSDqO2O3us_tRfvh5" version="21.1.5" type="github">
  <diagram name="Página-1" id="tVBKiXS-g7YZ-D7ZOfJw">
    <mxGraphModel dx="1120" dy="484" grid="1" gridSize="10" guides="1" tooltips="1" connect="1" arrows="1" fold="1" page="1" pageScale="1" pageWidth="827" pageHeight="1169" math="0" shadow="0">
      <root>
        <mxCell id="0" />
        <mxCell id="1" parent="0" />
        <mxCell id="J9Ax2APUQyeAhCgAQzUw-2" style="edgeStyle=orthogonalEdgeStyle;rounded=0;orthogonalLoop=1;jettySize=auto;html=1;" parent="1" source="J9Ax2APUQyeAhCgAQzUw-1" edge="1">
          <mxGeometry relative="1" as="geometry">
            <mxPoint x="388.3299999999999" y="110" as="targetPoint" />
          </mxGeometry>
        </mxCell>
        <mxCell id="J9Ax2APUQyeAhCgAQzUw-1" value="Inicio" style="strokeWidth=2;html=1;shape=mxgraph.flowchart.start_1;whiteSpace=wrap;" parent="1" vertex="1">
          <mxGeometry x="330" y="10" width="116.66" height="70" as="geometry" />
        </mxCell>
        <mxCell id="J9Ax2APUQyeAhCgAQzUw-11" style="edgeStyle=orthogonalEdgeStyle;rounded=0;orthogonalLoop=1;jettySize=auto;html=1;" parent="1" source="J9Ax2APUQyeAhCgAQzUw-10" edge="1">
          <mxGeometry relative="1" as="geometry">
            <mxPoint x="388.32500000000005" y="210" as="targetPoint" />
          </mxGeometry>
        </mxCell>
        <mxCell id="J9Ax2APUQyeAhCgAQzUw-10" value="valor" style="shape=parallelogram;html=1;strokeWidth=2;perimeter=parallelogramPerimeter;whiteSpace=wrap;rounded=1;arcSize=12;size=0.23;" parent="1" vertex="1">
          <mxGeometry x="329.99" y="110" width="116.67" height="70" as="geometry" />
        </mxCell>
        <mxCell id="J9Ax2APUQyeAhCgAQzUw-17" style="edgeStyle=elbowEdgeStyle;rounded=0;orthogonalLoop=1;jettySize=auto;html=1;elbow=vertical;" parent="1" source="J9Ax2APUQyeAhCgAQzUw-16" edge="1">
          <mxGeometry relative="1" as="geometry">
            <mxPoint x="220" y="270" as="targetPoint" />
            <Array as="points">
              <mxPoint x="270" y="245" />
            </Array>
          </mxGeometry>
        </mxCell>
        <mxCell id="J9Ax2APUQyeAhCgAQzUw-21" style="edgeStyle=orthogonalEdgeStyle;rounded=0;orthogonalLoop=1;jettySize=auto;html=1;entryX=0.583;entryY=0;entryDx=0;entryDy=0;entryPerimeter=0;" parent="1" source="J9Ax2APUQyeAhCgAQzUw-16" target="J9Ax2APUQyeAhCgAQzUw-20" edge="1">
          <mxGeometry relative="1" as="geometry">
            <mxPoint x="550" y="245" as="targetPoint" />
            <Array as="points">
              <mxPoint x="550" y="245" />
            </Array>
          </mxGeometry>
        </mxCell>
        <mxCell id="J9Ax2APUQyeAhCgAQzUw-16" value="valor&amp;gt;10" style="strokeWidth=2;html=1;shape=mxgraph.flowchart.decision;whiteSpace=wrap;" parent="1" vertex="1">
          <mxGeometry x="330" y="210" width="120" height="70" as="geometry" />
        </mxCell>
        <mxCell id="J9Ax2APUQyeAhCgAQzUw-19" value="É maior que 10" style="shape=display;whiteSpace=wrap;html=1;" parent="1" vertex="1">
          <mxGeometry x="160" y="270" width="120" height="60" as="geometry" />
        </mxCell>
        <mxCell id="J9Ax2APUQyeAhCgAQzUw-25" style="edgeStyle=orthogonalEdgeStyle;rounded=0;orthogonalLoop=1;jettySize=auto;html=1;exitX=0.583;exitY=0.983;exitDx=0;exitDy=0;exitPerimeter=0;" parent="1" source="J9Ax2APUQyeAhCgAQzUw-20" edge="1">
          <mxGeometry relative="1" as="geometry">
            <mxPoint x="390" y="380" as="targetPoint" />
            <Array as="points">
              <mxPoint x="550" y="350" />
              <mxPoint x="390" y="350" />
            </Array>
          </mxGeometry>
        </mxCell>
        <mxCell id="J9Ax2APUQyeAhCgAQzUw-20" value="É menor que 10" style="shape=display;whiteSpace=wrap;html=1;" parent="1" vertex="1">
          <mxGeometry x="480" y="270" width="120" height="60" as="geometry" />
        </mxCell>
        <mxCell id="J9Ax2APUQyeAhCgAQzUw-26" style="edgeStyle=elbowEdgeStyle;rounded=0;orthogonalLoop=1;jettySize=auto;html=1;elbow=vertical;exitX=0;exitY=0;exitDx=60;exitDy=60;exitPerimeter=0;" parent="1" source="J9Ax2APUQyeAhCgAQzUw-19" edge="1">
          <mxGeometry relative="1" as="geometry">
            <mxPoint x="390" y="380" as="targetPoint" />
            <mxPoint x="230" y="330" as="sourcePoint" />
            <Array as="points">
              <mxPoint x="310" y="350" />
            </Array>
          </mxGeometry>
        </mxCell>
        <mxCell id="J9Ax2APUQyeAhCgAQzUw-29" value="se" style="text;html=1;align=center;verticalAlign=middle;resizable=0;points=[];autosize=1;strokeColor=none;fillColor=none;" parent="1" vertex="1">
          <mxGeometry x="190" y="215" width="40" height="30" as="geometry" />
        </mxCell>
        <mxCell id="J9Ax2APUQyeAhCgAQzUw-30" value="senão" style="text;html=1;align=center;verticalAlign=middle;resizable=0;points=[];autosize=1;strokeColor=none;fillColor=none;" parent="1" vertex="1">
          <mxGeometry x="520" y="215" width="60" height="30" as="geometry" />
        </mxCell>
        <mxCell id="J9Ax2APUQyeAhCgAQzUw-31" value="FIM" style="strokeWidth=2;html=1;shape=mxgraph.flowchart.terminator;whiteSpace=wrap;" parent="1" vertex="1">
          <mxGeometry x="340" y="380" width="110" height="60" as="geometry" />
        </mxCell>
      </root>
    </mxGraphModel>
  </diagram>
</mxfile>
